<svg version="1.1" viewBox="0 0 182 225" xmlns="http://www.w3.org/2000/svg">
 <g transform="translate(1.0114 1.0764)">
  <path d="m55.65 138.4 3.85 3.65q-3.2 0.7-13.65 7.9l-12.15 8.6q-1.65 1.1-1.1 2.4 0.95 2.2 0.45 4.4-0.75 3.15-1.7 2.1-0.8-0.95-0.8-3 0-1.6-1.75 0.15t-2.55 4.4q-1.15 3.6-2.5 2.9-0.3-2.1 0.35-5.95l0.7-3-4.45 2.3q-4.8 2.55-5 1.9-0.1-0.55 2.55-3.15l2.7-2.5q-8.15 3.65-8.4 2.05-0.1-1 8.55-3.75l8.65-2.6q3.4-4.55 15.15-12.1l11.1-6.7" fill="#fee6c4" fill-rule="evenodd"/>
  <path d="m55.65 138.4-11.1 6.7q-11.75 7.55-15.15 12.1l-8.65 2.6q-8.65 2.75-8.55 3.75 0.25 1.6 8.4-2.05l-2.7 2.5q-2.65 2.6-2.55 3.15 0.2 0.65 5-1.9l4.45-2.3-0.7 3q-0.65 3.85-0.35 5.95 1.35 0.7 2.5-2.9 0.8-2.65 2.55-4.4t1.75-0.15q0 2.05 0.8 3 0.95 1.05 1.7-2.1 0.5-2.2-0.45-4.4-0.55-1.3 1.1-2.4l12.15-8.6q10.45-7.2 13.65-7.9z" fill="none" stroke="#c60" stroke-linejoin="miter-clip" stroke-miterlimit="3"/>
  <path d="m142.5 198.1 2.75 4.15q-26.95 11.6-31.85 13.35l-4.3 1.4q-0.6 0.05-2.95-1.15-1.95-1-3.45-7.6l-1.1-6.45 12.95-2.7-0.25 9.95q5-0.7 26.5-9.95l1.7-1" fill="#fee6c4" fill-rule="evenodd"/>
  <path d="m142.5 198.1q1.15-0.9 1.6-2 0.6-1.6 1.9-2 2.2-0.65 3.6 0.25 1.35 0.95 2.55 3.9 1.15 2.9 1.7 11.3-1.45 5.3-4.3-1.85-2.95-7.2-3.35-5.9l-0.95 0.45-2.75-4.15" fill="#f00" fill-rule="evenodd"/>
  <path d="m142.5 198.1 2.75 4.15" fill="none" stroke="#c60" stroke-linecap="round" stroke-linejoin="round"/>
  <path d="m145.25 202.25 0.95-0.45q0.4-1.3 3.35 5.9 2.85 7.15 4.3 1.85-0.55-8.4-1.7-11.3-1.2-2.95-2.55-3.9-1.4-0.9-3.6-0.25-1.3 0.4-1.9 2-0.45 1.1-1.6 2l-1.7 1q-21.5 9.25-26.5 9.95l0.25-9.95-12.95 2.7 1.1 6.45q1.5 6.6 3.45 7.6 2.35 1.2 2.95 1.15l4.3-1.4q4.9-1.75 31.85-13.35" fill="none" stroke="#c60" stroke-linecap="round" stroke-linejoin="miter-clip" stroke-miterlimit="3"/>
  <path d="m12.65 214.25q5.2-1.6 34.85-22.4 7.1-2.95 9.6-1.45 1.25 0.75 1.05 2.1l-41.45 26.45-4.05-4.7" fill="#fee6c4" fill-rule="evenodd"/>
  <path d="m12.65 214.25 4.05 4.7-6.1 3.9q-7.75-6.35-10.4-13.1l-0.15-0.35q-0.3-3.55 1.55-1.7 3.25 2.9 10.5 6.3l0.55 0.25" fill="#f00" fill-rule="evenodd"/>
  <path d="m16.7 218.95 41.45-26.45q0.2-1.35-1.05-2.1-2.5-1.5-9.6 1.45-29.65 20.8-34.85 22.4l4.05 4.7-6.1 3.9q-7.75-6.35-10.4-13.1l-0.15-0.35q-0.3-3.55 1.55-1.7 3.25 2.9 10.5 6.3l0.55 0.25" fill="none" stroke="#c60" stroke-linecap="round" stroke-linejoin="round"/>
  <path d="m63.8 174.4 24.9 12.9-32.8 15.2-10.4-10.2 18.3-17.9" fill="#c03" fill-rule="evenodd"/>
  <path d="m63.8 174.4-18.3 17.9 10.4 10.2 32.8-15.2z" fill="none" stroke="#c60" stroke-linejoin="miter-clip" stroke-miterlimit="3"/>
  <path d="m102.6 180.85 15.1-2.8q1.35 4.95 0.1 10.45l-1.45 5.15q0.2 1.15 5.4 9.3l-25.35 9.95q-2.25-3.55-7.35-15.45l-4.65-11.25q2.55-2.1 18.2-5.35" fill="#c03" fill-rule="evenodd"/>
  <path d="m102.6 180.85q-15.65 3.25-18.2 5.35l4.65 11.25q5.1 11.9 7.35 15.45l25.35-9.95q-5.2-8.15-5.4-9.3l1.45-5.15q1.25-5.5-0.1-10.45z" fill="none" stroke="#c60" stroke-linecap="round" stroke-linejoin="round"/>
  <path d="m134.7 136.6 8.6 2q9.1 2.25 11.5 3.2 2.6 1.1 5.4 1.35l3.2-0.2q1.15-0.55 8.2 1.8 7.6 2.55 8.35 5.2-0.45 1.6-3.85-0.65-2.1-1.45-5.2-2.1l-2.7-0.4 4.45 1.55q4.75 2 6.15 4.55 2.3 4.1-3.6 0l-9.5-4.95 5.1 3.3q5.5 4.1 7.35 8.2 2.95 6.6-4.3-0.65-6.35-6.35-10.45-8.15l0.95 5.9q-0.95 4.5-3.2-0.7l-1.45-5.35q-0.45-1.7-3.3-2.8l-22.85-6.8 1.15-4.3" fill="#fee6c4" fill-rule="evenodd"/>
  <path d="m134.7 136.6 8.6 2q9.1 2.25 11.5 3.2 2.6 1.1 5.4 1.35l3.2-0.2q1.15-0.55 8.2 1.8 7.6 2.55 8.35 5.2-0.45 1.6-3.85-0.65-2.1-1.45-5.2-2.1l-2.7-0.4 4.45 1.55q4.75 2 6.15 4.55 2.3 4.1-3.6 0l-9.5-4.95 5.1 3.3q5.5 4.1 7.35 8.2 2.95 6.6-4.3-0.65-6.35-6.35-10.45-8.15l0.95 5.9q-0.95 4.5-3.2-0.7l-1.45-5.35q-0.45-1.7-3.3-2.8l-22.85-6.8z" fill="none" stroke="#c60" stroke-linejoin="miter-clip" stroke-miterlimit="3"/>
  <path d="m53.2 143.9-2.3-4.8q1.3-2.55 13.65-7.1 6.2-2.25 12.15-4l2.75 12.25q-2.65 2.8-13.45 6.8-10.55 3.85-10.55 2.7 0-0.85-2.25-5.85" fill="url(#gradient0)" fill-rule="evenodd"/>
  <path d="m53.2 143.9q2.25 5 2.25 5.85 0 1.15 10.55-2.7 10.8-4 13.45-6.8l-2.75-12.25q-5.95 1.75-12.15 4-12.35 4.55-13.65 7.1z" fill="none" stroke="#c60" stroke-linecap="round" stroke-linejoin="round"/>
  <path d="m66.5 160.35 0.05-0.1q5.55-12.2 6.3-15.5 0.9-3.8 0.9-12.35l-0.2-7.8 19 5q20.1-0.15 34.95 2.4 7.4 1.25 10.8 2.55 0 5-4.75 12.9-6.2-1.95-12.35-0.6l-4.85 1.75q1.2 3.9 2.25 14.35l0.55 6.25q-28.1 1.55-43.35-3.6-4.8-1.6-7.75-3.7l-1.6-1.4 0.05-0.15m52.9 15.65q0.05 4.05-0.35 7.25-0.85 7.25-12.45 7l-10.1-1-9.15-1.05q-7.2-0.3-15.9-3.55-7.9-2.9-9.65-5.05-1.35-1.65-1.4-2.75l0.5-3.35q0.15-1 2.9-7.15l3 1.9q4.6 2.55 10.4 4.45 18.5 6.1 42.2 3.3" fill="url(#gradient1)" fill-rule="evenodd"/>
  <path d="m66.45 160.5 1.6 1.4q2.95 2.1 7.75 3.7 15.25 5.15 43.35 3.6l0.25 6.8q-23.7 2.8-42.2-3.3-5.8-1.9-10.4-4.45l-3-1.9 2.65-5.85" fill="#f77b00" fill-rule="evenodd"/>
  <path d="m119.15 169.2-0.55-6.25q-1.05-10.45-2.25-14.35l4.85-1.75q6.15-1.35 12.35 0.6 4.75-7.9 4.75-12.9-3.4-1.3-10.8-2.55-14.85-2.55-34.95-2.4l-19-5 0.2 7.8q0 8.55-0.9 12.35-0.75 3.3-6.3 15.5l-0.05 0.1" fill="none" stroke="#c60" stroke-linejoin="miter-clip" stroke-miterlimit="3"/>
  <path d="m119.15 169.2 0.25 6.8q0.05 4.05-0.35 7.25-0.85 7.25-12.45 7l-10.1-1-9.15-1.05q-7.2-0.3-15.9-3.55-7.9-2.9-9.65-5.05-1.35-1.65-1.4-2.75l0.5-3.35q0.15-1 2.9-7.15l2.65-5.85" fill="none" stroke="#c60" stroke-linecap="round" stroke-linejoin="miter-clip" stroke-miterlimit="3"/>
  <path d="m85.5 138.3-2-4.65q3.7-3.8 16.6-4.3 6.45-0.25 12.15 0.25 2.2 7.55-0.1 10.65-0.85 1.05-2.45 1.9-0.9 0.45-2.65 1.25-3.75 2.15-7.9 3.15-5.95 1.5-8.6-0.9-2.55-2.25-5.05-7.35" fill="url(#gradient2)" fill-rule="evenodd"/>
  <path d="m85.5 138.3q2.5 5.1 5.05 7.35 2.65 2.4 8.6 0.9 4.15-1 7.9-3.15 1.75-0.8 2.65-1.25 1.6-0.85 2.45-1.9 2.3-3.1 0.1-10.65-5.7-0.5-12.15-0.25-12.9 0.5-16.6 4.3z" fill="none" stroke="#c60" stroke-linejoin="miter-clip" stroke-miterlimit="3"/>
  <path d="m73.45 128 2.75 1.75q3.8 1.75 9.05 1.45l-0.2 1.35q-0.35 1.7-1.2 3.25-2.65 5.05-11.2 7.15l0.8-14.95" fill="url(#gradient3)" fill-rule="evenodd"/>
  <path d="m73.45 128 2.75 1.75q3.8 1.75 9.05 1.45l-0.2 1.35q-0.35 1.7-1.2 3.25-2.65 5.05-11.2 7.15z" fill="none" stroke="#c60" stroke-linecap="round" stroke-linejoin="round"/>
  <path d="m138.75 59.85q0.25 1.2 2.8 6.9 2.65 6.6 3.4 12.6 2.4 19.3-13.55 36.45-15.85 17.1-41.4 16.05-7.95-0.35-15.95-2.45l-6.4-2.05q-27.85-15.6-31.25-31.2-1.5-6.7 0.95-14.9 1.7-5.7 6.75-15.95 6.95-14 21.85-25.35 7.45-5.7 13.5-8.6 28.75-14.5 59.3 28.5" fill="#fee6c4" fill-rule="evenodd"/>
  <path d="m138.75 59.85q-30.55-43-59.3-28.5-6.05 2.9-13.5 8.6-14.9 11.35-21.85 25.35-5.05 10.25-6.75 15.95-2.45 8.2-0.95 14.9 3.4 15.6 31.25 31.2l6.4 2.05q8 2.1 15.95 2.45 25.55 1.05 41.4-16.05 15.95-17.15 13.55-36.45-0.75-6-3.4-12.6-2.55-5.7-2.8-6.9z" fill="none" stroke="#c60" stroke-linecap="round" stroke-linejoin="round"/>
  <path d="m47.65 113.1q-7.2-3.5-10.95-17.1-3.8-13.65 6.6-26.6-0.5-1.4 5.85 1.2 8.7 3.5 12.4 11.85 3.6 8.4 0.05 16.8-3.6 8.35-12.25 11.75-2.85 1.1-1.7 2.1" fill="url(#gradient4)" fill-rule="evenodd"/>
  <path d="m95.85 117.2q-0.7-9.35 5.2-16.35 5.9-6.95 14.95-7.45 4.8-0.3 9 1.35 9.75 18.3 0.4 26.55-10.85 9.6-25.25 7.85-3.8-5.15-4.3-11.95" fill="url(#gradient5)" fill-rule="evenodd"/>
  <path d="m133.6 100.4 0.2-0.15q9.2-6.05 13.05-3 3.9 3.1-0.4 12.85-3.55 8.05-11.85 6.55-2.6-0.5-5.35-1.85l-1.45-0.85 5.8-13.55" fill="#fee6c4" fill-rule="evenodd"/>
  <path d="m127.8 113.95 1.45 0.85q2.75 1.35 5.35 1.85 8.3 1.5 11.85-6.55 4.3-9.75 0.4-12.85-3.85-3.05-13.05 3l-0.2 0.15m-5.8 13.55-0.8-0.45" fill="none" stroke="#c60" stroke-linecap="round" stroke-linejoin="round"/>
  <path d="m56.6 58.05q-5.1-2.55-6.9-5.8l-0.8-2.8q0.25-11 9.9-14.4 5.9-2.1 13.9-1.05l1.75 0.3q0.3 5.2-8.75 15-4.5 4.9-9.1 8.75" fill="url(#gradient6)" fill-rule="evenodd"/>
  <path d="m56.6 58.05q4.6-3.85 9.1-8.75 9.05-9.8 8.75-15l-1.75-0.3q-8-1.05-13.9 1.05-9.65 3.4-9.9 14.4l0.8 2.8q1.8 3.25 6.9 5.8z" fill="none" stroke="#c60" stroke-linecap="round" stroke-linejoin="round"/>
  <path d="m121.55 86.25-0.7 3.95q-8.6-19.35-21.45-29.7-4.05-3.25-8-5.2l-3.15-1.3q-0.2 4.05 0.9 13.55-10.05-9.35-14.25-21.45-1.35-3.8-1.95-7.4l-0.3-2.85q0.1-4.15 3.2-7 3.3-3.05 9.25-3.6 14.5-1.4 37.1 11.75 21.65 12.6 27.8 33.5 2.25 7.7 2 15.25-0.25 6.3-1.95 9.9-2.6 5.5-9.9 6.3l-4.45-0.4q-1.75-0.65-1-1.85 2.05-3.15 1.55-7-1.8 4.95-8.8 6.55 1.25-5.65 0.75-11.4l-0.75-4.65q-2.45-0.85-5.9 3.05 1.15-7.25 0.9-10.75 0.25 3.5-0.9 10.75" fill="url(#gradient7)" fill-rule="evenodd"/>
  <path d="m121.55 86.25q3.45-3.9 5.9-3.05l0.75 4.65q0.5 5.75-0.75 11.4 7-1.6 8.8-6.55 0.5 3.85-1.55 7-0.75 1.2 1 1.85l4.45 0.4q7.3-0.8 9.9-6.3 1.7-3.6 1.95-9.9 0.25-7.55-2-15.25-6.15-20.9-27.8-33.5-22.6-13.15-37.1-11.75-5.95 0.55-9.25 3.6-3.1 2.85-3.2 7l0.3 2.85q0.6 3.6 1.95 7.4 4.2 12.1 14.25 21.45-1.1-9.5-0.9-13.55l3.15 1.3q3.95 1.95 8 5.2 12.85 10.35 21.45 29.7l0.7-3.95" fill="none" stroke="#c60" stroke-linecap="round" stroke-linejoin="miter-clip" stroke-miterlimit="3"/>
  <path d="m121.55 86.25q1.15-7.25 0.9-10.75" fill="none" stroke="#c60" stroke-linecap="round" stroke-linejoin="miter-clip" stroke-miterlimit="3"/>
  <path d="m123.25 29.95q4.15 3.15 8.15 6.8 2.85 2.4 4.05 2.35 2.9-0.1 6-6.85 2.95-6.5 8.35-4.9 2.7 0.75 4.8 2.85 3.7 5.8-0.15 14.9-1.95 4.55-4.6 7.95 0.65 14.5-0.9 17.9-25.2-29.7-52.7-39-8.6-2.9-16.35-3.4l-6.1 0.05q2.25-4.1 11.3-7.1 4.55-1.45 8.6-2.15l0.5-2.9q0.15-2.65-0.75-9.55-0.9-7.05 4.25-6.9 4.2 0.15 7.3 3.25 2.75 2.75 2.75 17.45 7.55 3.15 15.5 9.25" fill="url(#gradient8)" fill-rule="evenodd"/>
  <path d="m123.25 29.95q-7.95-6.1-15.5-9.25 0-14.7-2.75-17.45-3.1-3.1-7.3-3.25-5.15-0.15-4.25 6.9 0.9 6.9 0.75 9.55l-0.5 2.9q-4.05 0.7-8.6 2.15-9.05 3-11.3 7.1l6.1-0.05q7.75 0.5 16.35 3.4 27.5 9.3 52.7 39 1.55-3.4 0.9-17.9 2.65-3.4 4.6-7.95 3.85-9.1 0.15-14.9-2.1-2.1-4.8-2.85-5.4-1.6-8.35 4.9-3.1 6.75-6 6.85-1.2 0.05-4.05-2.35-4-3.65-8.15-6.8z" fill="none" stroke="#c60" stroke-linejoin="miter-clip" stroke-miterlimit="3"/>
  <path d="m70.15 83.65q-2.5 4.5-6.8 2.7l1.7 1.35q1.75 1.95 2.15 5.2" fill="none" stroke="#c60" stroke-linecap="round" stroke-linejoin="round"/>
  <path d="m83.85 103.5q0.35 5.3-0.05 7.4-1.3 6.6-9.35 7.6-9.3 1.15-15.15-5.2-5.6-6-3.65-14.15 1.9 1.4 4.1 2.45 10.15 4.95 24.1 1.9" fill="#f63" fill-rule="evenodd"/>
  <path d="m83.85 103.5 2.4-0.6m-30.6-3.75-1.95-1.65-1.9-2.1" fill="none" stroke="#c60" stroke-linecap="round" stroke-linejoin="miter-clip" stroke-miterlimit="3"/>
  <path d="m83.85 103.5q0.35 5.3-0.05 7.4-1.3 6.6-9.35 7.6-9.3 1.15-15.15-5.2-5.6-6-3.65-14.15" fill="none" stroke="#c00" stroke-linecap="round" stroke-linejoin="miter-clip" stroke-miterlimit="3"/>
  <path d="m55.65 99.15q1.9 1.4 4.1 2.45 10.15 4.95 24.1 1.9" fill="none" stroke="#c60" stroke-linecap="round" stroke-linejoin="miter-clip" stroke-miterlimit="3"/>
  <path d="m101.8 112.4 0.55-0.15 0.5 0.15 0.25 0.45-0.25 0.4-0.5 0.2-0.55-0.2-0.2-0.4 0.2-0.45m-0.4-5.85 0.55 0.2 0.25 0.5-0.25 0.5q-0.2 0.2-0.55 0.2l-0.6-0.2-0.2-0.5 0.2-0.5 0.6-0.2m-52.25-21.35-0.65-0.25-0.2-0.6 0.2-0.65 0.65-0.2 0.6 0.2 0.25 0.65-0.25 0.6-0.6 0.25m-2.95 1.7 0.25 0.45-0.25 0.4-0.5 0.2-0.55-0.2-0.2-0.4 0.2-0.45 0.55-0.15q0.3 0 0.5 0.15m-0.9-4.65-0.55 0.2-0.6-0.2-0.2-0.5 0.2-0.5 0.6-0.2 0.55 0.2 0.25 0.5-0.25 0.5m60.5 28.45-0.65-0.25-0.2-0.6 0.2-0.65 0.65-0.2 0.6 0.2 0.25 0.65-0.25 0.6-0.6 0.25" fill="#c60" fill-rule="evenodd"/>
  <path d="m90.85 83.85q10.6 0.25 15.35-3.55" fill="none" stroke="#c60" stroke-linecap="round" stroke-linejoin="round"/>
  <path d="m106.4 96.5q-1.5 3.5-5.05 4.85-3.6 1.4-7.1-0.1-3.45-1.55-4.85-5.1-1.4-3.6 0.1-7.05 1.55-3.5 5.15-4.9 3.55-1.35 7 0.15 3.5 1.5 4.9 5.1 1.4 3.55-0.15 7.05" fill="#fff" fill-rule="evenodd"/>
  <path d="m106.4 96.5q-1.5 3.5-5.05 4.85-3.6 1.4-7.1-0.1-3.45-1.55-4.85-5.1-1.4-3.6 0.1-7.05 1.55-3.5 5.15-4.9 3.55-1.35 7 0.15 3.5 1.5 4.9 5.1 1.4 3.55-0.15 7.05z" fill="none" stroke="#c60" stroke-linecap="round" stroke-linejoin="round"/>
  <path d="m100.55 84.3q2.85 1.25 4 4.2t-0.1 5.8q-1.25 2.9-4.2 4.05t-5.8-0.1q-2.9-1.3-4-4.2-1.2-2.95 0.1-5.8 1.25-2.9 4.2-4.05 2.9-1.15 5.8 0.1" fill="url(#gradient9)" fill-rule="evenodd"/>
  <path d="m62.65 58.35q0.3 4.1 3.85 9.65" fill="none" stroke="#c60" stroke-linecap="round" stroke-linejoin="round"/>
  <path d="m66.6 75.5q-1.5 3.5-5.05 4.85-3.6 1.4-7.1-0.1-3.45-1.55-4.85-5.1-1.4-3.6 0.1-7.05 1.55-3.5 5.15-4.9 3.55-1.35 7 0.15 3.5 1.5 4.9 5.1 1.4 3.55-0.15 7.05" fill="#fff" fill-rule="evenodd"/>
  <path d="m66.6 75.5q-1.5 3.5-5.05 4.85-3.6 1.4-7.1-0.1-3.45-1.55-4.85-5.1-1.4-3.6 0.1-7.05 1.55-3.5 5.15-4.9 3.55-1.35 7 0.15 3.5 1.5 4.9 5.1 1.4 3.55-0.15 7.05z" fill="none" stroke="#c60" stroke-linecap="round" stroke-linejoin="round"/>
  <path d="m60.6 63.3q2.85 1.25 4 4.2t-0.1 5.8q-1.25 2.9-4.2 4.05t-5.8-0.1q-2.9-1.3-4-4.2-1.2-2.95 0.1-5.8 1.25-2.9 4.2-4.05 2.9-1.15 5.8 0.1" fill="url(#gradient10)" fill-rule="evenodd"/>
 </g>
 <defs>
  <linearGradient id="gradient0" x1="-819.2" x2="819.2" gradientTransform="matrix(.0157 -.0076 .0041 .0084 66.15 139.05)" gradientUnits="userSpaceOnUse">
   <stop stop-color="#fdfd3e" offset="0"/>
   <stop stop-color="#ff9f11" offset="1"/>
  </linearGradient>
  <linearGradient id="gradient1" x1="-819.2" x2="819.2" gradientTransform="matrix(-.0345 .0147 -.018 -.0424 93.2 157.3)" gradientUnits="userSpaceOnUse">
   <stop stop-color="#fdfd3e" offset="0"/>
   <stop stop-color="#ff9f11" offset="1"/>
  </linearGradient>
  <linearGradient id="gradient2" x1="-819.2" x2="819.2" gradientTransform="matrix(.0085 -.0129 .014 .0092 98.55 135.8)" gradientUnits="userSpaceOnUse">
   <stop stop-color="#fdfd3e" offset="0"/>
   <stop stop-color="#fff" offset="1"/>
  </linearGradient>
  <linearGradient id="gradient3" x1="-819.2" x2="819.2" gradientTransform="matrix(.0025 -.0101 .0077 .0019 79.55 127.45)" gradientUnits="userSpaceOnUse">
   <stop stop-color="#fdfd3e" offset="0"/>
   <stop stop-color="#fff" offset="1"/>
  </linearGradient>
  <radialGradient id="gradient4" cx="0" cy="0" r="819.2" gradientTransform="matrix(-.0108 .0252 -.0265 -.0107 40.5 90.7)" gradientUnits="userSpaceOnUse">
   <stop stop-color="#f7b" stop-opacity=".50196" offset="0"/>
   <stop stop-color="#fff" stop-opacity="0" offset="1"/>
  </radialGradient>
  <radialGradient id="gradient5" cx="0" cy="0" r="819.2" gradientTransform="matrix(.0274 -.0015 .0021 .0284 117.7 115.95)" gradientUnits="userSpaceOnUse">
   <stop stop-color="#ff77c9" stop-opacity=".50196" offset="0"/>
   <stop stop-color="#fff" stop-opacity="0" offset="1"/>
  </radialGradient>
  <linearGradient id="gradient6" x1="-819.2" x2="819.2" gradientTransform="matrix(-.0114 .0125 -.0075 -.0068 59.15 44.15)" gradientUnits="userSpaceOnUse">
   <stop stop-color="#ffb03c" offset="0"/>
   <stop stop-color="#bb5e00" offset="1"/>
  </linearGradient>
  <linearGradient id="gradient7" x1="-819.2" x2="819.2" gradientTransform="matrix(.0291 .0257 -.0186 .0211 111.65 56.6)" gradientUnits="userSpaceOnUse">
   <stop stop-color="#ffb03c" offset="0"/>
   <stop stop-color="#bb5e00" offset="1"/>
  </linearGradient>
  <linearGradient id="gradient8" x1="-819.2" x2="819.2" gradientTransform="matrix(.0456 .0264 -.0121 .0209 121.05 33.1)" gradientUnits="userSpaceOnUse">
   <stop stop-color="#ff3c3c" offset="0"/>
   <stop stop-color="#ba014b" offset="1"/>
  </linearGradient>
  <linearGradient id="gradient9" x1="-819.2" x2="819.2" gradientTransform="matrix(.0034 .0086 -.0086 .0034 97.5 91.25)" gradientUnits="userSpaceOnUse">
   <stop stop-color="#81f174" offset=".0039216"/>
   <stop stop-color="#0c740c" offset="1"/>
  </linearGradient>
  <linearGradient id="gradient10" x1="-819.2" x2="819.2" gradientTransform="matrix(.0034 .0086 -.0086 .0034 57.55 70.25)" gradientUnits="userSpaceOnUse">
   <stop stop-color="#81f174" offset=".0039216"/>
   <stop stop-color="#0c740c" offset="1"/>
  </linearGradient>
 </defs>
</svg>
