<svg version="1.1" viewBox="0 0 181 253" xmlns="http://www.w3.org/2000/svg">
 <g transform="translate(90.47,132.48)">
  <path d="m-38.8 111.2q3.15-4.45 13.85-39 3.85-6.7 6.75-7 1.45-0.2 2.1 1l-16.65 46.2-6.05-1.2" fill="#fee6c4" fill-rule="evenodd"/>
  <path d="m-38.8 111.2 6.05 1.2-2.4 6.85q-10-0.3-16.2-4l-0.35-0.25q-2.4-2.6 0.2-2.25 4.3 0.3 12.15-1.45l0.55-0.1" fill="#f00" fill-rule="evenodd"/>
  <path d="m-32.75 112.4 16.65-46.2q-0.65-1.2-2.1-1-2.9 0.3-6.75 7-10.7 34.55-13.85 39l6.05 1.2-2.4 6.85q-10-0.3-16.2-4l-0.35-0.25q-2.4-2.6 0.2-2.25 4.3 0.3 12.15-1.45l0.55-0.1" fill="none" stroke="#c60" stroke-linecap="round" stroke-linejoin="round"/>
  <path d="m-22.7 48.45 27.6-5-16.7 32-14.4-1.7 3.5-25.3" fill="#c03" fill-rule="evenodd"/>
  <path d="m-22.7 48.45-3.5 25.3 14.4 1.7 16.7-32z" fill="none" stroke="#c60" stroke-linejoin="miter-clip" stroke-miterlimit="3"/>
  <path d="m35.8 111.2q-3.15-4.45-13.85-39-3.85-6.7-6.75-7-1.45-0.2-2.1 1l16.65 46.2 6.05-1.2" fill="#fee6c4" fill-rule="evenodd"/>
  <path d="m35.8 111.2-6.05 1.2 2.4 6.85q10-0.3 16.2-4l0.35-0.25q2.4-2.6-0.2-2.25-4.3 0.3-12.15-1.45l-0.55-0.1" fill="#f00" fill-rule="evenodd"/>
  <path d="m29.75 112.4-16.65-46.2q0.65-1.2 2.1-1 2.9 0.3 6.75 7 10.7 34.55 13.85 39l-6.05 1.2 2.4 6.85q10-0.3 16.2-4l0.35-0.25q2.4-2.6-0.2-2.25-4.3 0.3-12.15-1.45l-0.55-0.1" fill="none" stroke="#c60" stroke-linecap="round" stroke-linejoin="round"/>
  <path d="m19.7 48.45-27.6-5 16.7 32 14.4-1.7-3.5-25.3" fill="#c03" fill-rule="evenodd"/>
  <path d="m19.7 48.45 3.5 25.3-14.4 1.7-16.7-32z" fill="none" stroke="#c60" stroke-linejoin="miter-clip" stroke-miterlimit="3"/>
  <path d="m39.4-9.3-2.15 4.85q3.25-0.6 15.6 2.05l14.5 3.2q2 0.45 1.95 1.85 0 2.35 1.3 4.2 1.9 2.6 2.35 1.25 0.35-1.15-0.4-3.05-0.65-1.45 1.65-0.5 2.3 0.9 4.05 3.05 2.45 2.85 3.4 1.7-0.5-2.05-2.6-5.35l-1.8-2.45 5 0.4 5.3-0.2q-0.1-0.55-3.55-1.9l-3.4-1.25q8.9 0.2 8.5-1.35-0.3-1-9.3-0.2l-9 0.95q-4.85-2.9-18.6-5.3l-12.8-1.95" fill="#fee6c4" fill-rule="evenodd"/>
  <path d="m39.4-9.3 12.8 1.95q13.75 2.4 18.6 5.3l9-0.95q9-0.8 9.3 0.2 0.4 1.55-8.5 1.35l3.4 1.25q3.45 1.35 3.55 1.9l-5.3 0.2-5-0.4 1.8 2.45q2.1 3.3 2.6 5.35-0.95 1.15-3.4-1.7-1.75-2.15-4.05-3.05-2.3-0.95-1.65 0.5 0.75 1.9 0.4 3.05-0.45 1.35-2.35-1.25-1.3-1.85-1.3-4.2 0.05-1.4-1.95-1.85l-14.5-3.2q-12.35-2.65-15.6-2.05z" fill="none" stroke="#c60" stroke-linejoin="miter-clip" stroke-miterlimit="3"/>
  <path d="m43.8-5.2 0.25-5.3q-2.2-1.85-15.3-1.3l-12.7 1 2.15 12.35q3.5 1.55 15 1.05 11.2-0.5 10.75-1.55-0.35-0.75-0.15-6.25" fill="url(#gradient0)" fill-rule="evenodd"/>
  <path d="m43.8-5.2q-0.2 5.5 0.15 6.25 0.45 1.05-10.75 1.55-11.5 0.5-15-1.05l-2.15-12.35 12.7-1q13.1-0.55 15.3 1.3z" fill="none" stroke="#c60" stroke-linecap="round" stroke-linejoin="round"/>
  <path d="m-40.25-8 2.55 4.6q-3.25-0.3-15.3 3.55-6.25 1.95-14.1 4.65-1.9 0.55-1.75 1.9 0.25 2.4-0.85 4.35-1.6 2.8-2.25 1.5-0.5-1.15 0.1-3.1 0.5-1.5-1.7-0.35t-3.7 3.45q-2.15 3.05-3.2 2.05 0.3-2.1 2.05-5.55l1.55-2.65-4.9 0.85-5.35 0.35q0.1-0.55 3.35-2.25l3.35-1.6q-8.9 1.05-8.65-0.5 0.2-1 9.2-1.1l9.05 0.1q4.55-3.4 17.95-7.15l12.6-3.1" fill="#fee6c4" fill-rule="evenodd"/>
  <path d="m-40.25-8-12.6 3.1q-13.4 3.75-17.95 7.15l-9.05-0.1q-9 0.1-9.2 1.1-0.25 1.55 8.65 0.5l-3.35 1.6q-3.25 1.7-3.35 2.25l5.35-0.35 4.9-0.85-1.55 2.65q-1.75 3.45-2.05 5.55 1.05 1 3.2-2.05 1.5-2.3 3.7-3.45t1.7 0.35q-0.6 1.95-0.1 3.1 0.65 1.3 2.25-1.5 1.1-1.95 0.85-4.35-0.15-1.35 1.75-1.9 7.85-2.7 14.1-4.65 12.05-3.85 15.3-3.55z" fill="none" stroke="#c60" stroke-linejoin="miter-clip" stroke-miterlimit="3"/>
  <path d="m-44.25-3.5-0.75-5.25q1.95-2.05 15.05-2.75 6.55-0.35 12.75-0.3-0.4 6.3-0.95 12.5-3.35 1.9-14.8 2.55l-10.85-0.5q0.25-0.8-0.45-6.25" fill="url(#gradient1)" fill-rule="evenodd"/>
  <path d="m-44.25-3.5q0.7 5.45 0.45 6.25l10.85 0.5q11.45-0.65 14.8-2.55 0.55-6.2 0.95-12.5-6.2-0.05-12.75 0.3-13.1 0.7-15.05 2.75z" fill="none" stroke="#c60" stroke-linecap="round" stroke-linejoin="round"/>
  <path d="m-28.55 27.65 1.6 1.4q2.95 2.1 7.75 3.7 15.25 5.15 43.35 3.6l0.25 6.8q-23.7 2.8-42.2-3.3-5.8-1.9-10.4-4.45l-3-1.9 2.65-5.85" fill="#f77b00" fill-rule="evenodd"/>
  <path d="m-28.5 27.5 0.05-0.1q5.55-12.2 6.3-15.5 0.9-3.8 0.9-12.35l-0.2-7.8 19 5q9.9-0.05 18.5 0.5 6.5 22.4 7.55 32.85l0.55 6.25q-28.1 1.55-43.35-3.6-4.8-1.6-7.75-3.7l-1.6-1.4 0.05-0.15m52.9 15.65q0.05 4.05-0.35 7.25-0.85 7.25-12.45 7l-10.1-1-9.15-1.05q-7.2-0.3-15.9-3.55-7.9-2.9-9.65-5.05-1.35-1.65-1.4-2.75l0.5-3.35q0.15-1 2.9-7.15l3 1.9q4.6 2.55 10.4 4.45 18.5 6.1 42.2 3.3" fill="url(#gradient2)" fill-rule="evenodd"/>
  <path d="m24.15 36.35-0.55-6.25q-1.05-10.45-7.55-32.85-8.6-0.55-18.5-0.5l-19-5 0.2 7.8q0 8.55-0.9 12.35-0.75 3.3-6.3 15.5l-0.05 0.1" fill="none" stroke="#c60" stroke-linecap="round" stroke-linejoin="miter-clip" stroke-miterlimit="3"/>
  <path d="m24.15 36.35 0.25 6.8q0.05 4.05-0.35 7.25-0.85 7.25-12.45 7l-10.1-1-9.15-1.05q-7.2-0.3-15.9-3.55-7.9-2.9-9.65-5.05-1.35-1.65-1.4-2.75l0.5-3.35q0.15-1 2.9-7.15l2.65-5.85" fill="none" stroke="#c60" stroke-linecap="round" stroke-linejoin="miter-clip" stroke-miterlimit="3"/>
  <path d="m-9.5 5.45-2-4.65q3.7-3.8 16.6-4.3 6.45-0.25 12.15 0.25 2.2 7.55-0.1 10.65-0.85 1.05-2.45 1.9-0.9 0.45-2.65 1.25-3.75 2.15-7.9 3.15-5.95 1.5-8.6-0.9-2.55-2.25-5.05-7.35" fill="url(#gradient3)" fill-rule="evenodd"/>
  <path d="m-9.5 5.45q2.5 5.1 5.05 7.35 2.65 2.4 8.6 0.9 4.15-1 7.9-3.15 1.75-0.8 2.65-1.25 1.6-0.85 2.45-1.9 2.3-3.1 0.1-10.65-5.7-0.5-12.15-0.25-12.9 0.5-16.6 4.3z" fill="none" stroke="#c60" stroke-linejoin="miter-clip" stroke-miterlimit="3"/>
  <path d="m-21.55-4.85 2.75 1.75q3.8 1.75 9.05 1.45l-0.2 1.35q-0.35 1.7-1.2 3.25-2.65 5.05-11.2 7.15l0.8-14.95" fill="url(#gradient4)" fill-rule="evenodd"/>
  <path d="m-21.55-4.85 2.75 1.75q3.8 1.75 9.05 1.45l-0.2 1.35q-0.35 1.7-1.2 3.25-2.65 5.05-11.2 7.15z" fill="none" stroke="#c60" stroke-linecap="round" stroke-linejoin="round"/>
  <g>
   <path d="m43.75-59.35q0.25 1.2 2.8 6.9 2.65 6.6 3.4 12.6 2.4 19.3-13.55 36.45-15.85 17.1-41.4 16.05-7.95-0.35-15.95-2.45l-6.4-2.05q-27.85-15.6-31.25-31.2-1.5-6.7 0.95-14.9 1.7-5.7 6.75-15.95 6.95-14 21.85-25.35 7.45-5.7 13.5-8.6 28.75-14.5 59.3 28.5" fill="#fee6c4" fill-rule="evenodd"/>
   <path d="m43.75-59.35q-30.55-43-59.3-28.5-6.05 2.9-13.5 8.6-14.9 11.35-21.85 25.35-5.05 10.25-6.75 15.95-2.45 8.2-0.95 14.9 3.4 15.6 31.25 31.2l6.4 2.05q8 2.1 15.95 2.45 25.55 1.05 41.4-16.05 15.95-17.15 13.55-36.45-0.75-6-3.4-12.6-2.55-5.7-2.8-6.9z" fill="none" stroke="#c60" stroke-linecap="round" stroke-linejoin="round"/>
   <path d="m-47.35-6.1q-7.2-3.5-10.95-17.1-3.8-13.65 6.6-26.6-0.5-1.4 5.85 1.2 8.7 3.5 12.4 11.85 3.6 8.4 0.05 16.8-3.6 8.35-12.25 11.75-2.85 1.1-1.7 2.1" fill="url(#gradient5)" fill-rule="evenodd"/>
   <path d="m0.85-2q-0.7-9.35 5.2-16.35 5.9-6.95 14.95-7.45 4.8-0.3 9 1.35 9.75 18.3 0.4 26.55-10.85 9.6-25.25 7.85-3.8-5.15-4.3-11.95" fill="url(#gradient6)" fill-rule="evenodd"/>
   <path d="m38.6-18.8 0.2-0.15q9.2-6.05 13.05-3 3.9 3.1-0.4 12.85-3.55 8.05-11.85 6.55-2.6-0.5-5.35-1.85-0.75-0.4-1.45-0.85l5.8-13.55" fill="#fee6c4" fill-rule="evenodd"/>
   <path d="m32.8-5.25q0.7 0.45 1.45 0.85 2.75 1.35 5.35 1.85 8.3 1.5 11.85-6.55 4.3-9.75 0.4-12.85-3.85-3.05-13.05 3l-0.2 0.15m-5.8 13.55-0.8-0.45" fill="none" stroke="#c60" stroke-linecap="round" stroke-linejoin="round"/>
   <path d="m-38.4-61.15q-5.1-2.55-6.9-5.8l-0.8-2.8q0.25-11 9.9-14.4 5.9-2.1 13.9-1.05l1.75 0.3q0.3 5.2-8.75 15-4.5 4.9-9.1 8.75" fill="url(#gradient7)" fill-rule="evenodd"/>
   <path d="m-38.4-61.15q4.6-3.85 9.1-8.75 9.05-9.8 8.75-15l-1.75-0.3q-8-1.05-13.9 1.05-9.65 3.4-9.9 14.4l0.8 2.8q1.8 3.25 6.9 5.8z" fill="none" stroke="#c60" stroke-linecap="round" stroke-linejoin="round"/>
   <path d="m26.55-32.95-0.7 3.95q-8.6-19.35-21.45-29.7-4.05-3.25-8-5.2l-3.15-1.3q-0.2 4.05 0.9 13.55-10.05-9.35-14.25-21.45-1.35-3.8-1.95-7.4l-0.3-2.85q0.1-4.15 3.2-7 3.3-3.05 9.25-3.6 14.5-1.4 37.1 11.75 21.65 12.6 27.8 33.5 2.25 7.7 2 15.25-0.25 6.3-1.95 9.9-2.6 5.5-9.9 6.3-2.75 0.3-4.45-0.4-1.75-0.65-1-1.85 2.05-3.15 1.55-7-1.8 4.95-8.8 6.55 1.25-5.65 0.75-11.4l-0.75-4.65q-2.45-0.85-5.9 3.05 1.15-7.25 0.9-10.75 0.25 3.5-0.9 10.75" fill="url(#gradient8)" fill-rule="evenodd"/>
   <path d="m26.55-32.95q3.45-3.9 5.9-3.05l0.75 4.65q0.5 5.75-0.75 11.4 7-1.6 8.8-6.55 0.5 3.85-1.55 7-0.75 1.2 1 1.85 1.7 0.7 4.45 0.4 7.3-0.8 9.9-6.3 1.7-3.6 1.95-9.9 0.25-7.55-2-15.25-6.15-20.9-27.8-33.5-22.6-13.15-37.1-11.75-5.95 0.55-9.25 3.6-3.1 2.85-3.2 7l0.3 2.85q0.6 3.6 1.95 7.4 4.2 12.1 14.25 21.45-1.1-9.5-0.9-13.55l3.15 1.3q3.95 1.95 8 5.2 12.85 10.35 21.45 29.7l0.7-3.95" fill="none" stroke="#c60" stroke-linecap="round" stroke-linejoin="miter-clip" stroke-miterlimit="3"/>
   <path d="m26.55-32.95q1.15-7.25 0.9-10.75" fill="none" stroke="#c60" stroke-linecap="round" stroke-linejoin="miter-clip" stroke-miterlimit="3"/>
   <path d="m28.25-89.25q4.15 3.15 8.15 6.8 2.85 2.4 4.05 2.35 2.9-0.1 6-6.85 2.95-6.5 8.35-4.9 2.7 0.75 4.8 2.85 3.7 5.8-0.15 14.9-1.95 4.55-4.6 7.95 0.65 14.5-0.9 17.9-25.2-29.7-52.7-39-8.6-2.9-16.35-3.4l-6.1 0.05q2.25-4.1 11.3-7.1 4.55-1.45 8.6-2.15 0.4-1.4 0.5-2.9 0.15-2.65-0.75-9.55-0.9-7.05 4.25-6.9 4.2 0.15 7.3 3.25 2.75 2.75 2.75 17.45 7.55 3.15 15.5 9.25" fill="url(#gradient9)" fill-rule="evenodd"/>
   <path d="m28.25-89.25q-7.95-6.1-15.5-9.25 0-14.7-2.75-17.45-3.1-3.1-7.3-3.25-5.15-0.15-4.25 6.9 0.9 6.9 0.75 9.55-0.1 1.5-0.5 2.9-4.05 0.7-8.6 2.15-9.05 3-11.3 7.1l6.1-0.05q7.75 0.5 16.35 3.4 27.5 9.3 52.7 39 1.55-3.4 0.9-17.9 2.65-3.4 4.6-7.95 3.85-9.1 0.15-14.9-2.1-2.1-4.8-2.85-5.4-1.6-8.35 4.9-3.1 6.75-6 6.85-1.2 0.05-4.05-2.35-4-3.65-8.15-6.8z" fill="none" stroke="#c60" stroke-linejoin="miter-clip" stroke-miterlimit="3"/>
   <path d="m-24.85-35.55q-2.5 4.5-6.8 2.7l1.7 1.35q1.75 1.95 2.15 5.2" fill="none" stroke="#c60" stroke-linecap="round" stroke-linejoin="round"/>
   <path d="m-11.15-15.7q0.35 5.3-0.05 7.4-1.3 6.6-9.35 7.6-9.3 1.15-15.15-5.2-5.6-6-3.65-14.15 1.9 1.4 4.1 2.45 10.15 4.95 24.1 1.9" fill="#f63" fill-rule="evenodd"/>
   <path d="m-11.15-15.7 2.4-0.6m-30.6-3.75-1.95-1.65-1.9-2.1" fill="none" stroke="#c60" stroke-linecap="round" stroke-linejoin="miter-clip" stroke-miterlimit="3"/>
   <path d="m-11.15-15.7q0.35 5.3-0.05 7.4-1.3 6.6-9.35 7.6-9.3 1.15-15.15-5.2-5.6-6-3.65-14.15" fill="none" stroke="#c00" stroke-linecap="round" stroke-linejoin="miter-clip" stroke-miterlimit="3"/>
   <path d="m-39.35-20.05q1.9 1.4 4.1 2.45 10.15 4.95 24.1 1.9" fill="none" stroke="#c60" stroke-linecap="round" stroke-linejoin="miter-clip" stroke-miterlimit="3"/>
   <path d="m6.8-6.8 0.55-0.15 0.5 0.15 0.25 0.45-0.25 0.4-0.5 0.2-0.55-0.2-0.2-0.4 0.2-0.45m-0.4-5.85 0.55 0.2 0.25 0.5-0.25 0.5-0.55 0.2q-0.35 0-0.6-0.2l-0.2-0.5 0.2-0.5q0.25-0.2 0.6-0.2m-52.25-23.05q0.35 0 0.6 0.2l0.25 0.65-0.25 0.6q-0.25 0.25-0.6 0.25-0.4 0-0.65-0.25l-0.2-0.6 0.2-0.65 0.65-0.2m-2.95 3.4 0.25 0.45q0 0.25-0.25 0.4l-0.5 0.2-0.55-0.2-0.2-0.4 0.2-0.45 0.55-0.15 0.5 0.15m-0.9-4.65q-0.2 0.2-0.55 0.2l-0.6-0.2-0.2-0.5 0.2-0.5 0.6-0.2 0.55 0.2 0.25 0.5q0 0.3-0.25 0.5m60.5 28.45q-0.4 0-0.65-0.25l-0.2-0.6 0.2-0.65 0.65-0.2 0.6 0.2 0.25 0.65-0.25 0.6-0.6 0.25" fill="#c60" fill-rule="evenodd"/>
   <path d="m-4.15-48.95q10.6 0.25 15.35-3.55" fill="none" stroke="#c60" stroke-linecap="round" stroke-linejoin="round"/>
   <path d="m11.4-22.7q-1.5 3.5-5.05 4.85-3.6 1.4-7.1-0.1-3.45-1.55-4.85-5.1-1.4-3.6 0.1-7.05 1.55-3.5 5.15-4.9 3.55-1.35 7 0.15 3.5 1.5 4.9 5.1 1.4 3.55-0.15 7.05" fill="#fff" fill-rule="evenodd"/>
   <path d="m11.4-22.7q-1.5 3.5-5.05 4.85-3.6 1.4-7.1-0.1-3.45-1.55-4.85-5.1-1.4-3.6 0.1-7.05 1.55-3.5 5.15-4.9 3.55-1.35 7 0.15 3.5 1.5 4.9 5.1 1.4 3.55-0.15 7.05z" fill="none" stroke="#c60" stroke-linecap="round" stroke-linejoin="round"/>
   <path d="m8.25-33.5q2.25 1 3.2 3.35 0.9 2.35-0.1 4.65t-3.35 3.25l-4.65-0.1q-2.3-1.05-3.2-3.35-0.95-2.35 0.1-4.65 1-2.3 3.35-3.25l4.65 0.1" fill="url(#gradient10)" fill-rule="evenodd"/>
   <path d="m-32.35-67.65q0.3 4.1 3.85 9.65" fill="none" stroke="#c60" stroke-linecap="round" stroke-linejoin="round"/>
   <path d="m-28.4-43.7q-1.5 3.5-5.05 4.85-3.6 1.4-7.1-0.1-3.45-1.55-4.85-5.1-1.4-3.6 0.1-7.05 1.55-3.5 5.15-4.9 3.55-1.35 7 0.15 3.5 1.5 4.9 5.1 1.4 3.55-0.15 7.05" fill="#fff" fill-rule="evenodd"/>
   <path d="m-28.4-43.7q-1.5 3.5-5.05 4.85-3.6 1.4-7.1-0.1-3.45-1.55-4.85-5.1-1.4-3.6 0.1-7.05 1.55-3.5 5.15-4.9 3.55-1.35 7 0.15 3.5 1.5 4.9 5.1 1.4 3.55-0.15 7.05z" fill="none" stroke="#c60" stroke-linecap="round" stroke-linejoin="round"/>
   <path d="m-32.25-54.5q2.3 1 3.2 3.35t-0.1 4.65-3.35 3.25l-4.65-0.1q-2.3-1.05-3.2-3.35-0.95-2.35 0.1-4.65 1-2.3 3.35-3.25l4.65 0.1" fill="url(#gradient11)" fill-rule="evenodd"/>
  </g>
 </g>
 <defs>
  <linearGradient id="gradient0" x1="-819.2" x2="819.2" gradientTransform="matrix(-.0174 -.001 -5e-4 .0093 29.95 -4.65)" gradientUnits="userSpaceOnUse">
   <stop stop-color="#fdfd3e" offset="0"/>
   <stop stop-color="#ff9f11" offset="1"/>
  </linearGradient>
  <linearGradient id="gradient1" x1="-819.2" x2="819.2" gradientTransform="matrix(.0172 -.0026 .0014 .0092 -30.45 -4.3)" gradientUnits="userSpaceOnUse">
   <stop stop-color="#fdfd3e" offset="0"/>
   <stop stop-color="#ff9f11" offset="1"/>
  </linearGradient>
  <linearGradient id="gradient2" x1="-819.2" x2="819.2" gradientTransform="matrix(-.0345 .0147 -.018 -.0424 -1.8 24.45)" gradientUnits="userSpaceOnUse">
   <stop stop-color="#fdfd3e" offset="0"/>
   <stop stop-color="#ff9f11" offset="1"/>
  </linearGradient>
  <linearGradient id="gradient3" x1="-819.2" x2="819.2" gradientTransform="matrix(.0085 -.0129 .014 .0092 3.55 2.95)" gradientUnits="userSpaceOnUse">
   <stop stop-color="#fdfd3e" offset="0"/>
   <stop stop-color="#fff" offset="1"/>
  </linearGradient>
  <linearGradient id="gradient4" x1="-819.2" x2="819.2" gradientTransform="matrix(.0025 -.0101 .0077 .0019 -15.45 -5.4)" gradientUnits="userSpaceOnUse">
   <stop stop-color="#fdfd3e" offset="0"/>
   <stop stop-color="#fff" offset="1"/>
  </linearGradient>
  <radialGradient id="gradient5" cx="0" cy="0" r="819.2" gradientTransform="matrix(-.0108 .0252 -.0265 -.0107 -54.5 -28.5)" gradientUnits="userSpaceOnUse">
   <stop stop-color="#f7b" stop-opacity=".50196" offset="0"/>
   <stop stop-color="#fff" stop-opacity="0" offset="1"/>
  </radialGradient>
  <radialGradient id="gradient6" cx="0" cy="0" r="819.2" gradientTransform="matrix(.0274 -.0015 .0021 .0284 22.7 -3.25)" gradientUnits="userSpaceOnUse">
   <stop stop-color="#ff77c9" stop-opacity=".50196" offset="0"/>
   <stop stop-color="#fff" stop-opacity="0" offset="1"/>
  </radialGradient>
  <linearGradient id="gradient7" x1="-819.2" x2="819.2" gradientTransform="matrix(-.0114 .0125 -.0075 -.0068 -35.85 -75.05)" gradientUnits="userSpaceOnUse">
   <stop stop-color="#ffb03c" offset="0"/>
   <stop stop-color="#bb5e00" offset="1"/>
  </linearGradient>
  <linearGradient id="gradient8" x1="-819.2" x2="819.2" gradientTransform="matrix(.0291 .0257 -.0186 .0211 16.65 -62.6)" gradientUnits="userSpaceOnUse">
   <stop stop-color="#ffb03c" offset="0"/>
   <stop stop-color="#bb5e00" offset="1"/>
  </linearGradient>
  <linearGradient id="gradient9" x1="-819.2" x2="819.2" gradientTransform="matrix(.0456 .0264 -.0121 .0209 26.05 -86.1)" gradientUnits="userSpaceOnUse">
   <stop stop-color="#ff3c3c" offset="0"/>
   <stop stop-color="#ba014b" offset="1"/>
  </linearGradient>
  <linearGradient id="gradient10" x1="-819.2" x2="819.2" gradientTransform="matrix(.0027 .0069 -.0069 .0027 5.8 -27.95)" gradientUnits="userSpaceOnUse">
   <stop stop-color="#81f174" offset=".0039216"/>
   <stop stop-color="#0c740c" offset="1"/>
  </linearGradient>
  <linearGradient id="gradient11" x1="-819.2" x2="819.2" gradientTransform="matrix(.0027 .0069 -.0069 .0027 -34.7 -48.95)" gradientUnits="userSpaceOnUse">
   <stop stop-color="#81f174" offset=".0039216"/>
   <stop stop-color="#0c740c" offset="1"/>
  </linearGradient>
 </defs>
</svg>
