<svg version="1.1" viewBox="0 0 304 95" xmlns="http://www.w3.org/2000/svg">
 <g transform="matrix(2.4369,0,0,2.7352,152.39,32.276)">
  <path d="m5.55-2.55q-1.4 1.45-1.4 4.9 0 3.35 1.4 4.85 1.35 1.5 3.7 1.5 2.45 0 3.75-1.45 1.35-1.45 1.35-5.2 0-3.2-1.4-4.6-1.35-1.5-3.75-1.5-2.25 0-3.65 1.5m13.05-3.75q3.3 3 3.3 8.45 0 3.9-1.45 6.4-1.45 2.55-4.15 3.95-2.75 1.35-6.8 1.35-4.1 0-6.8-1.2t-4.4-3.8q-1.65-2.65-1.65-6.55 0-5.5 3.3-8.55 3.35-3.05 9.25-3.05 6.1 0 9.4 3m14.95 2.45v12.25h1.85l3.35-0.5q1-0.5 1.6-1.65 0.55-1.25 0.55-3.9 0-3.6-1.25-4.85-1.3-1.35-4.2-1.35h-1.9m3.65-5.05q3.35-0.05 5.35 0.8 2.05 0.85 3.35 2.4 1.35 1.5 1.95 3.6 0.6 2 0.6 4.3 0 3.6-0.9 5.6-0.9 1.95-2.45 3.3-1.6 1.3-3.4 1.8l-4.5 0.6h-11.15v-22.4h11.15m14.75 0h7.25v5.1l-1.4 10.25h-4.5l-1.35-10.25v-5.1m0.25 16.9h6.75v5.5h-6.75v-5.5m-105.8-16.25q2.5-1.05 6.7-1.05l6.05 0.65q1.95 0.7 3.3 2.1 1.3 1.4 2 3.6l-7.3 1.2q-0.45-1.3-1.5-1.95t-2.75-0.65q-2.45 0-3.9 1.55-1.5 1.55-1.5 5 0 3.65 1.5 5.2t4.15 1.6l2.4-0.4q1.15-0.3 2.6-1.15v-2.05h-5v-4.7h11.6v9.55q-3.35 2.05-5.9 2.85l-6.1 0.75q-4.3 0-7.05-1.3-2.75-1.4-4.25-4.05-1.5-2.75-1.5-6.2 0-3.7 1.65-6.4t4.8-4.15m30.8 5.7q-1.4 1.45-1.4 4.9 0 3.35 1.4 4.85 1.35 1.5 3.7 1.5 2.45 0 3.75-1.45 1.35-1.45 1.35-5.2 0-3.2-1.4-4.6-1.35-1.5-3.75-1.5-2.25 0-3.65 1.5m13.05-3.75q3.3 3 3.3 8.45 0 3.9-1.45 6.4-1.45 2.55-4.15 3.95-2.75 1.35-6.8 1.35-4.1 0-6.8-1.2t-4.4-3.8q-1.65-2.65-1.65-6.55 0-5.5 3.3-8.55 3.35-3.05 9.25-3.05 6.1 0 9.4 3" fill="#f00" fill-rule="evenodd"/>
  <path d="m5.55-2.55q-1.4 1.45-1.4 4.9 0 3.35 1.4 4.85 1.35 1.5 3.7 1.5 2.45 0 3.75-1.45 1.35-1.45 1.35-5.2 0-3.2-1.4-4.6-1.35-1.5-3.75-1.5-2.25 0-3.65 1.5m13.05-3.75q3.3 3 3.3 8.45 0 3.9-1.45 6.4-1.45 2.55-4.15 3.95-2.75 1.35-6.8 1.35-4.1 0-6.8-1.2t-4.4-3.8q-1.65-2.65-1.65-6.55 0-5.5 3.3-8.55 3.35-3.05 9.25-3.05 6.1 0 9.4 3m14.95 2.45v12.25h1.85l3.35-0.5q1-0.5 1.6-1.65 0.55-1.25 0.55-3.9 0-3.6-1.25-4.85-1.3-1.35-4.2-1.35h-1.9m3.65-5.05q3.35-0.05 5.35 0.8 2.05 0.85 3.35 2.4 1.35 1.5 1.95 3.6 0.6 2 0.6 4.3 0 3.6-0.9 5.6-0.9 1.95-2.45 3.3-1.6 1.3-3.4 1.8l-4.5 0.6h-11.15v-22.4h11.15m14.75 0h7.25v5.1l-1.4 10.25h-4.5l-1.35-10.25v-5.1m0.25 16.9h6.75v5.5h-6.75v-5.5m-105.8-16.25q2.5-1.05 6.7-1.05l6.05 0.65q1.95 0.7 3.3 2.1 1.3 1.4 2 3.6l-7.3 1.2q-0.45-1.3-1.5-1.95t-2.75-0.65q-2.45 0-3.9 1.55-1.5 1.55-1.5 5 0 3.65 1.5 5.2t4.15 1.6l2.4-0.4q1.15-0.3 2.6-1.15v-2.05h-5v-4.7h11.6v9.55q-3.35 2.05-5.9 2.85l-6.1 0.75q-4.3 0-7.05-1.3-2.75-1.4-4.25-4.05-1.5-2.75-1.5-6.2 0-3.7 1.65-6.4t4.8-4.15m30.8 5.7q-1.4 1.45-1.4 4.9 0 3.35 1.4 4.85 1.35 1.5 3.7 1.5 2.45 0 3.75-1.45 1.35-1.45 1.35-5.2 0-3.2-1.4-4.6-1.35-1.5-3.75-1.5-2.25 0-3.65 1.5m13.05-3.75q3.3 3 3.3 8.45 0 3.9-1.45 6.4-1.45 2.55-4.15 3.95-2.75 1.35-6.8 1.35-4.1 0-6.8-1.2t-4.4-3.8q-1.65-2.65-1.65-6.55 0-5.5 3.3-8.55 3.35-3.05 9.25-3.05 6.1 0 9.4 3" fill="none" stroke="#000" stroke-linecap="round" stroke-linejoin="round" stroke-width="5"/>
  <path d="m37.2-8.9q3.35-0.05 5.35 0.8 2.05 0.85 3.35 2.4 1.35 1.5 1.95 3.6 0.6 2 0.6 4.3 0 3.6-0.9 5.6-0.9 1.95-2.45 3.3-1.6 1.3-3.4 1.8l-4.5 0.6h-11.15v-22.4h11.15m-3.65 5.05v12.25h1.85l3.35-0.5q1-0.5 1.6-1.65 0.55-1.25 0.55-3.9 0-3.6-1.25-4.85-1.3-1.35-4.2-1.35h-1.9m-14.95-2.45q3.3 3 3.3 8.45 0 3.9-1.45 6.4-1.45 2.55-4.15 3.95-2.75 1.35-6.8 1.35-4.1 0-6.8-1.2t-4.4-3.8q-1.65-2.65-1.65-6.55 0-5.5 3.3-8.55 3.35-3.05 9.25-3.05 6.1 0 9.4 3m-13.05 3.75q-1.4 1.45-1.4 4.9 0 3.35 1.4 4.85 1.35 1.5 3.7 1.5 2.45 0 3.75-1.45 1.35-1.45 1.35-5.2 0-3.2-1.4-4.6-1.35-1.5-3.75-1.5-2.25 0-3.65 1.5m46.4-6.35h7.25v5.1l-1.4 10.25h-4.5l-1.35-10.25v-5.1m0.25 16.9h6.75v5.5h-6.75v-5.5m-105.8-16.25q2.5-1.05 6.7-1.05l6.05 0.65q1.95 0.7 3.3 2.1 1.3 1.4 2 3.6l-7.3 1.2q-0.45-1.3-1.5-1.95t-2.75-0.65q-2.45 0-3.9 1.55-1.5 1.55-1.5 5 0 3.65 1.5 5.2t4.15 1.6l2.4-0.4q1.15-0.3 2.6-1.15v-2.05h-5v-4.7h11.6v9.55q-3.35 2.05-5.9 2.85l-6.1 0.75q-4.3 0-7.05-1.3-2.75-1.4-4.25-4.05-1.5-2.75-1.5-6.2 0-3.7 1.65-6.4t4.8-4.15m43.85 1.95q3.3 3 3.3 8.45 0 3.9-1.45 6.4-1.45 2.55-4.15 3.95-2.75 1.35-6.8 1.35-4.1 0-6.8-1.2t-4.4-3.8q-1.65-2.65-1.65-6.55 0-5.5 3.3-8.55 3.35-3.05 9.25-3.05 6.1 0 9.4 3m-13.05 3.75q-1.4 1.45-1.4 4.9 0 3.35 1.4 4.85 1.35 1.5 3.7 1.5 2.45 0 3.75-1.45 1.35-1.45 1.35-5.2 0-3.2-1.4-4.6-1.35-1.5-3.75-1.5-2.25 0-3.65 1.5" fill="#f00" fill-rule="evenodd"/>
  <path d="m37.2-8.9q3.35-0.05 5.35 0.8 2.05 0.85 3.35 2.4 1.35 1.5 1.95 3.6 0.6 2 0.6 4.3 0 3.6-0.9 5.6-0.9 1.95-2.45 3.3-1.6 1.3-3.4 1.8l-4.5 0.6h-11.15v-22.4h11.15m-3.65 5.05v12.25h1.85l3.35-0.5q1-0.5 1.6-1.65 0.55-1.25 0.55-3.9 0-3.6-1.25-4.85-1.3-1.35-4.2-1.35h-1.9m-14.95-2.45q3.3 3 3.3 8.45 0 3.9-1.45 6.4-1.45 2.55-4.15 3.95-2.75 1.35-6.8 1.35-4.1 0-6.8-1.2t-4.4-3.8q-1.65-2.65-1.65-6.55 0-5.5 3.3-8.55 3.35-3.05 9.25-3.05 6.1 0 9.4 3m-13.05 3.75q-1.4 1.45-1.4 4.9 0 3.35 1.4 4.85 1.35 1.5 3.7 1.5 2.45 0 3.75-1.45 1.35-1.45 1.35-5.2 0-3.2-1.4-4.6-1.35-1.5-3.75-1.5-2.25 0-3.65 1.5m46.4-6.35h7.25v5.1l-1.4 10.25h-4.5l-1.35-10.25v-5.1m0.25 16.9h6.75v5.5h-6.75v-5.5m-105.8-16.25q2.5-1.05 6.7-1.05l6.05 0.65q1.95 0.7 3.3 2.1 1.3 1.4 2 3.6l-7.3 1.2q-0.45-1.3-1.5-1.95t-2.75-0.65q-2.45 0-3.9 1.55-1.5 1.55-1.5 5 0 3.65 1.5 5.2t4.15 1.6l2.4-0.4q1.15-0.3 2.6-1.15v-2.05h-5v-4.7h11.6v9.55q-3.35 2.05-5.9 2.85l-6.1 0.75q-4.3 0-7.05-1.3-2.75-1.4-4.25-4.05-1.5-2.75-1.5-6.2 0-3.7 1.65-6.4t4.8-4.15m43.85 1.95q3.3 3 3.3 8.45 0 3.9-1.45 6.4-1.45 2.55-4.15 3.95-2.75 1.35-6.8 1.35-4.1 0-6.8-1.2t-4.4-3.8q-1.65-2.65-1.65-6.55 0-5.5 3.3-8.55 3.35-3.05 9.25-3.05 6.1 0 9.4 3m-13.05 3.75q-1.4 1.45-1.4 4.9 0 3.35 1.4 4.85 1.35 1.5 3.7 1.5 2.45 0 3.75-1.45 1.35-1.45 1.35-5.2 0-3.2-1.4-4.6-1.35-1.5-3.75-1.5-2.25 0-3.65 1.5" fill="none" stroke="#fff" stroke-linecap="round" stroke-linejoin="round" stroke-width="2"/>
  <path d="m5.55-2.55q-1.4 1.45-1.4 4.9 0 3.35 1.4 4.85 1.35 1.5 3.7 1.5 2.45 0 3.75-1.45 1.35-1.45 1.35-5.2 0-3.2-1.4-4.6-1.35-1.5-3.75-1.5-2.25 0-3.65 1.5m13.05-3.75q3.3 3 3.3 8.45 0 3.9-1.45 6.4-1.45 2.55-4.15 3.95-2.75 1.35-6.8 1.35-4.1 0-6.8-1.2t-4.4-3.8q-1.65-2.65-1.65-6.55 0-5.5 3.3-8.55 3.35-3.05 9.25-3.05 6.1 0 9.4 3m14.95 2.45v12.25h1.85l3.35-0.5q1-0.5 1.6-1.65 0.55-1.25 0.55-3.9 0-3.6-1.25-4.85-1.3-1.35-4.2-1.35h-1.9m3.65-5.05q3.35-0.05 5.35 0.8 2.05 0.85 3.35 2.4 1.35 1.5 1.95 3.6 0.6 2 0.6 4.3 0 3.6-0.9 5.6-0.9 1.95-2.45 3.3-1.6 1.3-3.4 1.8l-4.5 0.6h-11.15v-22.4h11.15m14.75 0h7.25v5.1l-1.4 10.25h-4.5l-1.35-10.25v-5.1m0.25 16.9h6.75v5.5h-6.75v-5.5m-103.2-10.8q-1.5 1.55-1.5 5 0 3.65 1.5 5.2t4.15 1.6l2.4-0.4q1.15-0.3 2.6-1.15v-2.05h-5v-4.7h11.6v9.55q-3.35 2.05-5.9 2.85l-6.1 0.75q-4.3 0-7.05-1.3-2.75-1.4-4.25-4.05-1.5-2.75-1.5-6.2 0-3.7 1.65-6.4t4.8-4.15q2.5-1.05 6.7-1.05l6.05 0.65q1.95 0.7 3.3 2.1 1.3 1.4 2 3.6l-7.3 1.2q-0.45-1.3-1.5-1.95t-2.75-0.65q-2.45 0-3.9 1.55m28.2 0.25q-1.4 1.45-1.4 4.9 0 3.35 1.4 4.85 1.35 1.5 3.7 1.5 2.45 0 3.75-1.45 1.35-1.45 1.35-5.2 0-3.2-1.4-4.6-1.35-1.5-3.75-1.5-2.25 0-3.65 1.5m13.05-3.75q3.3 3 3.3 8.45 0 3.9-1.45 6.4-1.45 2.55-4.15 3.95-2.75 1.35-6.8 1.35-4.1 0-6.8-1.2t-4.4-3.8q-1.65-2.65-1.65-6.55 0-5.5 3.3-8.55 3.35-3.05 9.25-3.05 6.1 0 9.4 3" fill="#0f0" fill-rule="evenodd"/>
 </g>
</svg>
