<svg version="1.1" viewBox="0 0 811 800" xmlns="http://www.w3.org/2000/svg">
 <g transform="translate(405.5,399.95)" fill="#fff" fill-rule="evenodd">
  <path d="m403.45-245.75h-799.95v-21.7h799.95v21.7m0 40.7h-799.95v-21.7h799.95v21.7m0 81.4h-799.95v-21.7h799.95v21.7m0-40.7h-799.95v-21.7h799.95v21.7m0 122.1h-799.95v-21.7h799.95v21.7m0 40.7h-799.95v-21.7h799.95v21.7m0 40.7h-799.95v-21.7h799.95v21.7m0 40.7h-799.95v-21.7h799.95v21.7m0-162.8h-799.95v-21.7h799.95v21.7m0 244.2h-799.95v-21.7h799.95v21.7m0 40.7h-799.95v-21.7h799.95v21.7m0 40.7h-799.95v-21.7h799.95v21.7m0-122.1h-799.95v-21.7h799.95v21.7" fill-opacity=".22353"/>
  <path d="m405.5-233.35h-799.95v-21.7h799.95v21.7m0 40.7h-799.95v-21.7h799.95v21.7m0 81.4h-799.95v-21.7h799.95v21.7m0-40.7h-799.95v-21.7h799.95v21.7m0 122.1h-799.95v-21.7h799.95v21.7m0 40.7h-799.95v-21.7h799.95v21.7m0 40.7h-799.95v-21.7h799.95v21.7m0 40.7h-799.95v-21.7h799.95v21.7m0-162.8h-799.95v-21.7h799.95v21.7m0 244.2h-799.95v-21.7h799.95v21.7m0 40.7h-799.95v-21.7h799.95v21.7m0 40.7h-799.95v-21.7h799.95v21.7m0-122.1h-799.95v-21.7h799.95v21.7" fill-opacity=".22353"/>
  <path d="m388.55-399.95v799.95h-21.7v-799.95h21.7m-81.4 0v799.95h-21.7v-799.95h21.7m40.7 0v799.95h-21.7v-799.95h21.7m-609.55 0v799.95h-21.7v-799.95h21.7m-81.4 0v799.95h-21.7v-799.95h21.7m40.7 0v799.95h-21.7v-799.95h21.7m202.55 0v799.95h-21.7v-799.95h21.7m-80.45 0v799.95h-21.7v-799.95h21.7m40.7 0v799.95h-21.7v-799.95h21.7m-81.4 0v799.95h-21.7v-799.95h21.7m283.95 0v799.95h-21.7v-799.95h21.7m-81.4 0v799.95h-21.7v-799.95h21.7m40.7 0v799.95h-21.7v-799.95h21.7m203.5 0v799.95h-21.7v-799.95h21.7m-81.4 0v799.95h-21.7v-799.95h21.7m40.7 0v799.95h-21.7v-799.95h21.7m-81.4 0v799.95h-21.7v-799.95h21.7m-162.8 0v799.95h-21.7v-799.95h21.7m303.9 0h21.7v799.95h-21.7v-799.95m-628.55 799.95h-21.7v-799.95h21.7v799.95" fill-opacity=".12157"/>
 </g>
</svg>
